<svg width="16" height="16" viewBox="0 0 12 12" fill="none" xmlns="http://www.w3.org/2000/svg">
<g clip-path="url(#clip0_1057_673)">
<path d="M6.32362 9.23484C8.10727 9.23484 9.55835 7.78374 9.55835 6.00011C9.55835 4.21648 8.10725 2.76538 6.32362 2.76538C4.53999 2.76538 3.08887 4.21646 3.08887 6.00009C3.08887 7.78372 4.53996 9.23484 6.32362 9.23484ZM6.00135 5.67782V4.96169C6.00135 4.78371 6.14564 4.63942 6.32362 4.63942C6.5016 4.63942 6.64588 4.78371 6.64588 4.96169V6.00009C6.64588 6.17807 6.5016 6.32236 6.32362 6.32236H4.70557C4.52759 6.32236 4.3833 6.17807 4.3833 6.00009C4.3833 5.82211 4.52759 5.67782 4.70557 5.67782H6.00135Z" fill="#FFB320"/>
<path d="M9.98388 2.33984C9.00617 1.36215 7.70626 0.82373 6.32361 0.82373C4.94096 0.82373 3.64103 1.36215 2.66334 2.33984C1.85926 3.14394 1.35262 4.16605 1.19793 5.2728L1.05014 5.12501C0.924306 4.99918 0.720247 4.99918 0.594392 5.12501C0.468536 5.25084 0.468536 5.4549 0.594392 5.58076L1.24161 6.22797C1.30454 6.2909 1.38701 6.32238 1.46947 6.32238C1.55193 6.32238 1.63443 6.2909 1.69734 6.22797L2.34455 5.58076C2.47041 5.45492 2.47041 5.25087 2.34455 5.12501C2.21872 4.99918 2.01466 4.99918 1.8888 5.12501L1.874 5.13981C2.27707 3.05097 4.11882 1.46826 6.32361 1.46826C8.82248 1.46826 10.8555 3.50124 10.8555 6.00011C10.8555 8.49898 8.82248 10.532 6.32359 10.532C4.29121 10.532 2.49462 9.16545 1.95461 7.2088C1.90728 7.03721 1.72978 6.93647 1.55825 6.98388C1.38667 7.03121 1.28597 7.20869 1.33333 7.38025C1.62882 8.45094 2.27825 9.41651 3.16197 10.0991C4.07454 10.804 5.16779 11.1765 6.32359 11.1765C7.70624 11.1765 9.00615 10.6381 9.98386 9.66038C10.9616 8.68267 11.5 7.38278 11.5 6.00011C11.5 4.61744 10.9616 3.31755 9.98388 2.33984Z" fill="#FFB320"/>
</g>
<defs>
<clipPath id="clip0_1057_673">
<rect width="11" height="11" fill="white" transform="translate(0.5 0.5)"/>
</clipPath>
</defs>
</svg>
