<svg width="18" height="22" viewBox="0 0 18 22" fill="none" xmlns="http://www.w3.org/2000/svg">
<path d="M16.5552 2.7785L9.22186 0.945169C9.07635 0.9076 8.92369 0.9076 8.77819 0.945169L1.44486 2.7785C1.24661 2.82795 1.07057 2.9422 0.944685 3.10313C0.818798 3.26406 0.750285 3.46244 0.750024 3.66675V13.5512C0.747505 14.329 0.944145 15.0946 1.32122 15.7749C1.69829 16.4552 2.24325 17.0277 2.90419 17.4378L8.51419 20.9441C8.65988 21.0351 8.82822 21.0834 9.00002 21.0834C9.17183 21.0834 9.34017 21.0351 9.48586 20.9441L15.0959 17.4378C15.7568 17.0277 16.3018 16.4552 16.6788 15.7749C17.0559 15.0946 17.2525 14.329 17.25 13.5512V3.66675C17.2498 3.46244 17.1813 3.26406 17.0554 3.10313C16.9295 2.9422 16.7534 2.82795 16.5552 2.7785Z" fill="#2196F3"/>
</svg>
